<svg width="501" height="305" viewBox="0 0 501 305" fill="none" xmlns="http://www.w3.org/2000/svg">
<path d="M63.9998 4C63.1998 6 62.6665 8.26667 62.6665 9.33334C62.6665 10.2667 61.4665 16.4 59.9998 22.9333C58.5332 29.3333 53.4665 53.2 48.6665 76C40.5332 114.4 39.0665 121.6 35.8665 136C34.6665 141.867 33.3332 147.867 20.6665 208C7.59983 269.467 6.79983 273.6 1.99983 295.067C0.666493 301.6 0.53316 303.6 1.86649 304.133C2.66649 304.4 12.1332 304.533 22.6665 304.4L41.8665 304L42.9332 300C43.4665 297.733 47.1998 280.4 51.1998 261.333C55.3332 242.267 60.3998 218 62.6665 207.333C64.9332 196.667 67.9998 182.267 69.3332 175.333C70.7998 168.4 73.1998 156.933 74.6665 150C79.7332 126.4 83.9998 105.6 83.9998 104.133C83.9998 103.333 84.6665 103.733 85.4665 104.933C86.6665 107.067 85.1998 135.2 78.6665 234C77.1998 255.333 74.7998 298.267 74.6665 302.267C74.6665 304.4 75.9998 304.667 84.1332 304.667H93.4665L95.5998 299.6C97.4665 295.067 102.533 281.333 112.133 254C116.4 242.267 125.067 218.4 129.333 206.667C130.667 202.933 135.866 188.933 140.666 175.333C145.466 161.733 150.666 147.467 152.133 143.6C153.466 139.867 155.866 133.2 157.466 128.933C158.933 124.8 161.333 118.4 162.8 114.8C164.133 111.2 165.333 107.467 165.333 106.533C165.333 105.467 166 104.667 166.8 104.667C167.733 104.667 168 106 167.333 108.267C166.8 110.4 165.866 114.4 165.333 117.333C164.266 123.2 160.133 142.4 156 162C154.533 168.933 151.466 183.067 149.333 193.333C147.2 203.6 144 219.2 142 228C140.133 236.8 136.8 252.667 134.533 263.333C132.4 274 130 285.333 129.2 288.667C128.533 292 127.6 296.933 127.067 299.6L126.267 304.667H147.066C167.333 304.667 167.733 304.667 168.4 301.6C168.8 300 172.8 281.2 177.333 260C181.733 238.667 186 218.8 186.666 215.6C187.466 212.533 188.533 207.467 189.333 204.267C190 201.2 191.466 194.133 192.666 188.667C198.4 160.4 202.8 140.133 203.2 139.6C203.6 139.333 205.066 143.2 206.533 148.267C208 153.2 213.2 170.8 218 187.333C222.933 203.867 228.266 219.867 230 222.8C233.733 229.2 238.133 232.133 266.667 247.467C278 253.467 287.733 259.067 288.133 259.733C288.667 260.4 289.467 263.2 289.867 266C290.933 272.8 294.933 276.267 299.333 274.267C301.6 273.2 302.667 271.6 302.667 269.467C302.667 263.6 299.6 252.667 297.467 250.8C296.267 249.733 284.533 243.067 271.333 236C246.4 222.533 241.2 218.8 238.8 212.8C235.866 205.467 218.666 145.467 219.066 144.133C219.333 143.333 223.733 150.8 228.933 160.667C240.4 182.667 242.4 185.333 246.4 184.133C253.2 182 252.667 179.2 241.867 158.4C236.4 147.467 230.266 136.8 228.533 134.4C224.666 129.333 217.6 126.8 210.4 127.733C205.466 128.4 205.2 128.267 205.866 125.6C206.133 124 208.666 112.4 211.333 100C213.866 87.4667 216.666 74.9333 217.333 72C218 69.0667 219.466 62.1333 220.666 56.6667C222.4 47.6 223.866 40.5333 230 12C231.066 6.93334 231.466 2.26667 230.933 1.73334C230.266 1.06667 217.866 0.800004 203.333 0.933338L176.8 1.33334L172.533 12C170.266 17.8667 163.066 35.6 156.666 51.3333C128.533 120.4 118.667 145.467 118.667 147.333C118.667 148.667 118.267 148.8 117.333 147.867C116.267 146.8 116.267 130.933 117.2 96.5333C118 69.0667 118.8 36.4 118.933 24L119.333 1.33334L92.2665 0.933338L65.3332 0.666671L63.9998 4Z" fill="#ABDCA7"/>
<path d="M344.8 30.2667C342.4 33.7334 341.867 47.4667 344 51.4667C345.733 54.5334 351.067 54.8 353.867 51.8667C355.333 50.4 356 47.3334 356 41.6C356 32.5334 353.6 27.3334 349.333 27.3334C348 27.3334 345.867 28.6667 344.8 30.2667Z" fill="#ABDCA7"/>
<path d="M393.6 55.7333C386.133 63.3333 385.333 65.7333 389.067 69.0666C392.667 72.4 394.133 72 401.333 65.2C409.067 57.8666 410.4 54.8 407.2 51.2C403.6 47.2 401.2 48.1333 393.6 55.7333Z" fill="#ABDCA7"/>
<path d="M292.266 51.6C289.2 54.6667 290.666 58.8 297.066 65.0667C303.466 71.3333 307.466 72.6667 310.4 69.7333C313.466 66.6667 312 62.5333 305.6 56.2667C299.2 50 295.2 48.6667 292.266 51.6Z" fill="#ABDCA7"/>
<path d="M344.8 70.8C344.4 72 344 74 344 75.3333C344 77.0667 342 78.8 338 80.5334C330 84.1334 326.4 90 327.066 98.4C328 109.2 334.266 114.133 348.533 115.2C358.666 116.133 362 118.533 359.2 122.933C358 124.933 355.466 125.467 345.866 125.733C333.333 126.133 330.666 127.2 330.666 132C330.666 135.867 332.933 137.733 338.666 138.267C342.533 138.533 343.466 139.333 343.733 142C344.4 146.533 346.4 148.667 349.866 148.667C353.733 148.667 356 146.267 356 142C356 139.333 357.2 138 361.6 136C369.2 132.4 372.4 127.6 372.4 120C372.4 108.667 364.133 102 350 102C339.466 102 335.733 98.5334 340.8 93.4667C342.266 91.8667 345.6 91.3334 354 91.3334C362.4 91.3334 365.733 90.8 367.2 89.2C371.6 84.8 368 79.3334 360.533 79.3334C356.8 79.3334 356 78.8 356 76.5333C356 71.7333 353.466 68.6667 349.466 68.6667C347.2 68.6667 345.333 69.4667 344.8 70.8Z" fill="#ABDCA7"/>
<path d="M406.933 103.6C406 104.533 405.333 106.4 405.333 108C405.333 112.8 408 114 418.133 114C425.2 114 428.4 113.467 429.866 111.867C432.533 109.333 432.533 108.667 429.866 104.933C428.133 102.4 426.666 102 418.133 102C412.4 102 407.866 102.667 406.933 103.6Z" fill="#ABDCA7"/>
<path d="M271.466 105.067C269.866 106.267 269.2 108.133 269.6 110.667L270 114.667H282H294L294.4 110.667C295.066 105.2 291.866 103.333 282 103.333C277.466 103.333 272.8 104.133 271.466 105.067Z" fill="#ABDCA7"/>
<path d="M481.466 127.733C476.4 130.267 471.6 137.333 461.333 157.6C453.2 173.867 452 176.933 453.333 179.333C454.533 181.467 455.866 182 459.066 181.733C463.066 181.333 463.866 180.267 474 160.933C479.866 149.6 484.8 141.067 485.066 141.733C485.866 144.133 464.266 214.133 462 216.667C460.666 218.133 447.466 226 432.533 234C417.733 242.133 405.2 249.6 404.8 250.8C404.4 251.867 403.066 256.8 402 261.467C399.733 271.333 400.8 275.333 405.866 275.333C410 275.333 413.066 271.6 414.133 265.2C414.533 262.133 415.333 259.067 415.866 258.4C416.266 257.733 427.066 251.467 439.866 244.667C464 231.733 470.133 227.333 474.4 220.267C478 214.4 501.6 133.467 500.533 130.8C498.666 126 488 124.267 481.466 127.733Z" fill="#ABDCA7"/>
<path d="M389.6 147.6C388.667 148.533 388 150.4 388 152C388 155.2 399.733 167.333 402.933 167.333C411.6 167.333 411.6 160.8 402.933 152.267C396.533 146 392.533 144.667 389.6 147.6Z" fill="#ABDCA7"/>
<path d="M296.8 154C290.266 161.067 289.466 163.333 292.8 166.533C296.133 170 299.6 169.067 306 163.2C312.533 157.2 314.533 152.4 312 149.333C308.666 145.333 303.333 146.933 296.8 154Z" fill="#ABDCA7"/>
<path d="M347.733 164.8C344.4 166.667 344.133 188 347.466 189.2C354.266 191.867 357.333 188.133 357.333 177.2C357.333 170.4 356.8 168.133 354.666 166C351.6 162.933 350.933 162.8 347.733 164.8Z" fill="#ABDCA7"/>
<path d="M421.6 187.333C390.8 198.8 387.333 202.667 371.067 243.6C364.933 258.8 360 272.933 360 274.667C360 276.533 361.067 278.533 362.8 279.333C368.267 282.267 370.667 278.533 382.533 248.533C393.067 222 394.267 219.467 400.533 213.333C406.4 207.6 409.467 205.733 422.533 200.933C430.933 197.867 438.133 195.6 438.4 196C439.2 196.8 430.267 204.933 421.333 211.6C414 217.067 412.533 222.4 417.867 224.8C420.667 226.133 421.867 226 424.933 224C433.067 218.8 445.6 207.867 448.133 203.867C453.733 194.667 449.333 180.267 440.933 180.8C440 180.8 431.333 183.733 421.6 187.333Z" fill="#ABDCA7"/>
<path d="M255.6 186.933C249.733 198.533 252.533 205.867 267.733 217.867C278.533 226.533 283.067 228.533 286.533 226.4C291.733 223.2 289.867 219.733 277.467 210C266.533 201.467 263.333 198 266.4 198C267.867 198 291.867 207.2 295.867 209.333C299.733 211.333 306.4 218.133 309.6 223.333C310.667 225.2 316.267 238.533 321.867 253.067C327.6 267.6 333.2 280.267 334.267 281.333C338.133 285.2 344 282.8 344 277.333C344 275.867 338.933 261.867 332.8 246.267C316.533 205.067 312.933 201.2 282.533 189.867C262 182.133 258.133 181.867 255.6 186.933Z" fill="#ABDCA7"/>
</svg>
